<svg width="53" height="53" viewBox="0 0 53 53" fill="none" xmlns="http://www.w3.org/2000/svg">
<rect x="0.333374" y="0.25" width="52" height="52" rx="4" fill="#F1F1F1"/>
<path d="M12.373 23.1168C12.4442 21.5133 13.7649 20.25 15.37 20.25H35.7552C37.3091 20.25 38.6058 21.4366 38.7434 22.9844L40.2101 39.4844C40.3661 41.2392 38.9836 42.75 37.2219 42.75H14.6367C12.9275 42.75 11.5637 41.3242 11.6396 39.6168L12.373 23.1168Z" fill="white"/>
<rect x="26.0004" y="32.75" width="14" height="10" rx="1" fill="#FF4200"/>
<path d="M12.6689 23.1844C12.7353 22.3575 13.1107 21.5858 13.7204 21.0232C14.3301 20.4606 15.1294 20.1483 15.959 20.1484H35.8547C36.6843 20.1483 37.4836 20.4606 38.0933 21.0232C38.703 21.5858 39.0784 22.3575 39.1448 23.1844L40.4698 39.6844C40.5062 40.1385 40.4482 40.5952 40.2995 41.0258C40.1508 41.4563 39.9146 41.8515 39.6057 42.1863C39.2967 42.521 38.9219 42.7882 38.5046 42.9711C38.0874 43.1539 37.6368 43.2483 37.1813 43.2484H14.6324C14.1769 43.2483 13.7263 43.1539 13.3091 42.9711C12.8918 42.7882 12.517 42.521 12.208 42.1863C11.8991 41.8515 11.6629 41.4563 11.5142 41.0258C11.3655 40.5952 11.3075 40.1385 11.344 39.6844L12.6689 23.1844V23.1844Z" stroke="#1E1E1E" stroke-width="2" stroke-linecap="round" stroke-linejoin="round"/>
<path d="M32.5075 25.1V16.85C32.5075 15.0996 31.8121 13.4208 30.5744 12.1831C29.3367 10.9454 27.6579 10.25 25.9075 10.25C24.1571 10.25 22.4783 10.9454 21.2406 12.1831C20.0028 13.4208 19.3075 15.0996 19.3075 16.85V25.1" stroke="#1E1E1E" stroke-width="2" stroke-linecap="round" stroke-linejoin="round"/>
<path d="M26.0004 42.75V32.75H40.0004" stroke="#1E1E1E" stroke-width="2" stroke-linejoin="round"/>
<path d="M31.0004 30.75C31.0004 30.1977 30.5527 29.75 30.0004 29.75C29.4481 29.75 29.0004 30.1977 29.0004 30.75L31.0004 30.75ZM29.0004 34.75C29.0004 35.3023 29.4481 35.75 30.0004 35.75C30.5527 35.75 31.0004 35.3023 31.0004 34.75L29.0004 34.75ZM29.0004 30.75L29.0004 34.75L31.0004 34.75L31.0004 30.75L29.0004 30.75Z" fill="#1E1E1E"/>
<path d="M28.0004 39.75C28.5527 39.75 29.0004 39.3023 29.0004 38.75C29.0004 38.1977 28.5527 37.75 28.0004 37.75V39.75ZM24.0004 37.75C23.4481 37.75 23.0004 38.1977 23.0004 38.75C23.0004 39.3023 23.4481 39.75 24.0004 39.75V37.75ZM28.0004 37.75H24.0004V39.75H28.0004V37.75Z" fill="#1E1E1E"/>
<path d="M36.0004 30.75C36.0004 30.1977 35.5527 29.75 35.0004 29.75C34.4481 29.75 34.0004 30.1977 34.0004 30.75L36.0004 30.75ZM34.0004 34.75C34.0004 35.3023 34.4481 35.75 35.0004 35.75C35.5527 35.75 36.0004 35.3023 36.0004 34.75L34.0004 34.75ZM34.0004 30.75L34.0004 34.75L36.0004 34.75L36.0004 30.75L34.0004 30.75Z" fill="#1E1E1E"/>
</svg>
