<svg width="167" height="32" viewBox="0 0 167 32" fill="none" xmlns="http://www.w3.org/2000/svg">
<g clip-path="url(#clip0_6553_146989)">
<path d="M20.8768 10.7193C20.8768 9.84619 20.5717 9.12586 19.9397 8.58016C19.3295 8.05628 18.5013 7.77252 17.5206 7.77252C16.5399 7.77252 15.5374 8.14359 14.5349 8.90758C13.5542 9.64973 12.6171 10.632 11.7454 11.8544C11.048 12.8366 10.3942 13.928 9.82756 15.1068L10.9608 8.23091L10.3942 7.70703L2.11271 10.3264L1.98195 10.9594L2.7883 11.3305C3.35493 11.5706 3.769 11.8762 3.98694 12.2473C4.22666 12.6184 4.24846 13.1859 4.1177 13.9499L0.5 31.3905H6.84187L6.86366 31.2814C7.16877 29.6006 7.51746 27.8107 7.82257 26.1518C8.12768 24.4928 8.45458 22.8339 8.80327 21.175L9.26093 19.0358C9.91473 17.5078 10.6339 16.089 11.3967 14.8012C12.1377 13.557 13.053 12.531 14.0773 11.7452C14.6439 12.4001 15.2541 12.9021 15.8643 13.2514C16.4963 13.6224 17.1937 13.7971 17.8911 13.7971C18.8064 13.7971 19.5256 13.4915 20.0704 12.9021C20.6153 12.3782 20.8768 11.6143 20.8768 10.7193Z" fill="#FF4200"/>
<path d="M37.9628 16.4789C39.1179 15.2784 39.7063 14.0342 39.7063 12.79C39.7063 11.2839 39.1614 10.0615 38.0936 9.1447C37.0257 8.22792 35.4784 7.76953 33.4952 7.76953C31.5774 7.76953 29.7903 8.18427 28.1558 8.99191C26.5213 9.79955 25.0611 10.9564 23.8407 12.3753C22.5985 13.7941 21.6178 15.453 20.9422 17.2648C20.2448 19.0765 19.8961 21.0192 19.8961 23.0274C19.8961 25.865 20.6589 28.0915 22.1408 29.6413C23.6228 31.1911 25.5842 31.9769 27.9379 31.9769C29.507 31.9769 30.9671 31.6276 32.253 30.9073C33.5388 30.2088 34.6938 29.292 35.6745 28.1788C36.6552 27.0874 37.4834 25.9087 38.0936 24.6863L38.1372 24.599L37.4834 24.1406L37.418 24.2279C36.6552 25.2102 35.6963 26.0833 34.5848 26.8036C33.4952 27.524 32.2747 27.895 30.9453 27.895C29.398 27.895 28.1776 27.393 27.2841 26.4326C26.4123 25.4721 25.9547 23.9442 25.9111 21.8923C28.6353 21.3903 31.0543 20.6699 33.1029 19.7313C35.1951 18.7491 36.8078 17.6577 37.9628 16.4789ZM25.9547 20.6263C26.0636 19.142 26.347 17.7231 26.8046 16.4135C27.2841 15.0383 27.8943 13.7941 28.6135 12.7463C29.3326 11.6768 30.1172 10.8255 30.9236 10.2143C31.7299 9.60309 32.4709 9.2975 33.1683 9.2975C33.7567 9.2975 34.2361 9.49395 34.6284 9.90869C35.0207 10.3234 35.1951 10.9783 35.1951 11.895C35.1951 13.7941 34.4759 15.5185 33.0593 17.0028C31.6427 18.4871 29.2673 19.7095 25.9547 20.6263Z" fill="#FF4200"/>
<path d="M67.9505 7.72656C65.1827 7.72656 63.0688 8.687 61.2381 10.8262C60.0613 8.86162 57.7948 7.72656 55.0052 7.72656C51.9106 7.72656 50.1017 8.86162 48.8159 10.3023V8.94894V8.31592H48.1839H43.6291H42.9971V8.94894V30.777V31.4101H43.6291H48.4236H49.0556V30.777V17.8111C49.0556 14.5151 51.126 12.7907 53.1964 12.7907C55.5718 12.7907 56.4 13.8384 56.4 16.7634V30.777V31.4101H57.032H61.8265H62.4585V30.777V17.9639C62.4585 13.3146 64.7468 12.7689 66.4685 12.7689C69.4978 12.7689 69.8029 14.275 69.8029 18.0076V30.7552V31.3882H70.4349H75.2294H75.8615V30.7552V15.6938C75.8615 10.4114 73.2027 7.72656 67.9505 7.72656Z" fill="#FF4200"/>
<path d="M101.403 26.8698C101.207 26.8916 101.076 26.9353 100.946 26.9353H100.444C100.074 26.9353 99.9431 26.9353 99.9431 25.9094V14.6897C99.9431 12.3759 98.8753 10.4987 96.8703 9.25453C95.2576 8.27227 93.0128 7.72656 90.5938 7.72656C84.0994 7.72656 80.3727 10.5206 80.0676 15.5847L80.024 16.2395H80.6996H85.4941H86.0608L86.1043 15.672C86.3223 13.2927 88.5016 12.7907 90.2887 12.7907C92.8603 12.7907 94.1679 13.5765 94.1679 15.1263C94.1679 16.6543 93.209 16.9162 90.463 17.2436C89.7656 17.3309 88.9811 17.4182 88.1747 17.571C86.0825 17.8111 83.9032 18.1822 82.2469 19.1863C80.2637 20.3869 79.2612 22.3296 79.2612 24.9926C79.2612 29.8384 83.3148 31.9994 87.3466 31.9994C89.5259 31.9994 92.4462 31.4101 94.5602 29.8166C95.1922 31.2791 96.5216 31.9994 98.5919 31.9994C99.4855 31.9994 101.076 31.6938 101.839 31.4101L102.253 31.2573V30.8207V27.481V26.7388L101.512 26.8698H101.403ZM85.298 24.7743C85.298 23.0281 86.2787 22.1549 88.6978 21.762C89.2862 21.6529 89.9182 21.5874 90.5066 21.5219C91.7052 21.3691 92.8821 21.2382 93.8628 20.8671V23.4428C93.8628 26.3241 90.4194 26.9571 89.09 26.9571C88.9375 26.9353 85.298 26.8916 85.298 24.7743Z" fill="#FF4200"/>
<path d="M117.944 17.0477L125.899 9.38608L127.032 8.31651H125.463H119.579H119.296L119.121 8.49113L111.515 16.2401V0.633015V0H110.883H106.089H105.457V0.633015V30.7558V31.3888H106.089H110.883H111.515V30.7558V23.2251L113.629 21.1514L119.884 31.105L120.058 31.3888H120.407H126.269H127.446L126.792 30.4065L117.944 17.0477Z" fill="#FF4200"/>
<path d="M138.321 7.72656C135.096 7.72656 132.176 9.01442 130.149 11.3719C128.231 13.5983 127.163 16.6106 127.163 19.863C127.163 23.421 128.166 26.4114 130.083 28.5506C132.067 30.777 134.965 31.9776 138.452 31.9776C143.791 31.9776 147.91 28.8562 148.935 24.054L149.087 23.29H148.303H143.748H143.312L143.159 23.7047C142.375 25.9312 140.936 26.9135 138.452 26.9135C134.878 26.9135 133.44 24.3377 133.243 21.7184H148.608H149.153L149.218 21.1727C149.676 17.4837 148.608 13.8821 146.319 11.2845C144.314 8.99259 141.46 7.72656 138.321 7.72656ZM138.321 12.7689C141.133 12.7689 142.702 14.9953 143.094 17.2873H133.265C133.636 14.6024 135.641 12.7689 138.321 12.7689Z" fill="#FF4200"/>
<path d="M165.933 7.85753C165.824 7.85753 165.715 7.8357 165.628 7.81387C165.301 7.77022 164.953 7.72656 164.081 7.72656C161.793 7.72656 159.591 9.10173 158.262 10.7607V8.94894V8.31592H157.63H153.119H152.487V8.94894V30.777V31.4101H153.119H157.913H158.545V30.777V20.3869C158.545 16.2395 160.616 13.5547 163.819 13.5547C164.408 13.5547 165.062 13.6202 165.759 13.7511L166.5 13.8821V13.1181V8.46872V7.90119L165.933 7.85753Z" fill="#FF4200"/>
</g>
<defs>
<clipPath id="clip0_6553_146989">
<rect width="166" height="32" fill="white" transform="translate(0.5)"/>
</clipPath>
</defs>
</svg>
