<svg width="53" height="53" viewBox="0 0 53 53" fill="none" xmlns="http://www.w3.org/2000/svg">
<rect x="0.666748" y="0.25" width="52" height="52" rx="4" fill="#F1F1F1"/>
<path d="M24.5695 10.2223L8.63902 26.1527C8.10205 26.6897 8.10205 27.5603 8.63902 28.0973L23.1945 42.6527C23.7315 43.1897 24.6021 43.1897 25.139 42.6527L41.0695 26.7223C41.6065 26.1853 41.6065 25.3147 41.0695 24.7777L26.514 10.2223C25.9771 9.6853 25.1065 9.6853 24.5695 10.2223Z" fill="white"/>
<path d="M24.3195 10.0348L8.38902 25.9652C7.85205 26.5022 7.85205 27.3728 8.38902 27.9098L22.9445 42.4652C23.4815 43.0022 24.3521 43.0022 24.889 42.4652L40.8195 26.5348C41.3565 25.9978 41.3565 25.1272 40.8195 24.5902L26.264 10.0348C25.7271 9.4978 24.8565 9.4978 24.3195 10.0348Z" stroke="#1E1E1E" stroke-width="2" stroke-linecap="round" stroke-linejoin="round"/>
<path d="M40.6667 38.125C40.6667 34.6885 44.1042 31.25 44.1042 31.25C44.1042 31.25 47.5418 34.6885 47.5418 38.125C47.5418 39.0367 47.1796 39.911 46.5349 40.5557C45.8903 41.2003 45.0159 41.5625 44.1042 41.5625C43.1926 41.5625 42.3182 41.2003 41.6736 40.5557C41.0289 39.911 40.6667 39.0367 40.6667 38.125Z" fill="#FF4200"/>
<path d="M40.4167 37.9375C40.4167 34.501 43.8542 31.0625 43.8542 31.0625C43.8542 31.0625 47.2918 34.501 47.2918 37.9375C47.2918 38.8492 46.9296 39.7235 46.2849 40.3682C45.6403 41.0128 44.7659 41.375 43.8542 41.375C42.9426 41.375 42.0682 41.0128 41.4236 40.3682C40.7789 39.7235 40.4167 38.8492 40.4167 37.9375Z" stroke="#1E1E1E" stroke-width="2" stroke-linecap="round" stroke-linejoin="round"/>
<path d="M24.2358 21.7578L13.2358 10.7578" stroke="#1E1E1E" stroke-width="2" stroke-linecap="round" stroke-linejoin="round"/>
<path d="M26.6667 27.625C28.5652 27.625 30.1042 26.086 30.1042 24.1875C30.1042 22.289 28.5652 20.75 26.6667 20.75C24.7683 20.75 23.2292 22.289 23.2292 24.1875C23.2292 26.086 24.7683 27.625 26.6667 27.625Z" stroke="#1E1E1E" stroke-width="2" stroke-linecap="round" stroke-linejoin="round"/>
</svg>
