<svg width="52" height="53" viewBox="0 0 52 53" fill="none" xmlns="http://www.w3.org/2000/svg">
<rect y="0.25" width="52" height="52" rx="4" fill="#F1F1F1"/>
<circle cx="18" cy="38.25" r="5" fill="white"/>
<circle cx="34" cy="38.25" r="5" fill="#FF4200"/>
<path d="M26.0402 19.1433L16.058 7.94057C15.9438 7.81252 15.8032 7.71217 15.6464 7.64682C15.4896 7.58148 15.3205 7.55278 15.1515 7.56284C14.9825 7.57289 14.8177 7.62144 14.6694 7.70493C14.521 7.78842 14.3927 7.90476 14.2937 8.04548L12.4726 10.6567C11.9656 11.3917 11.7048 12.2752 11.7295 13.1747C11.7541 14.0743 12.0628 14.9414 12.6092 15.6461L22.7621 28.6791L19.8938 32.4794C18.4309 31.9718 16.8356 32.0414 15.4201 32.6747C14.0046 33.308 12.8708 34.4593 12.2403 35.9035C11.6098 37.3477 11.528 38.9808 12.011 40.4835C12.494 41.9861 13.5071 43.2501 14.8519 44.0283C16.1967 44.8065 17.7767 45.0428 19.2826 44.691C20.7886 44.3393 22.1123 43.4247 22.9947 42.1263C23.8771 40.8279 24.2548 39.239 24.0539 37.6705C23.8531 36.1019 23.088 34.6666 21.9085 33.6452L24.1849 30.5909L28.1118 35.5337C27.3759 36.9343 27.1766 38.5657 27.5529 40.1088C27.9291 41.6519 28.8539 42.9958 30.1464 43.8776C31.4389 44.7593 33.006 45.1156 34.5414 44.8767C36.0767 44.6378 37.4698 43.8209 38.4483 42.5858C39.4267 41.3507 39.9201 39.7861 39.8319 38.1982C39.7437 36.6102 39.0803 35.1131 37.9715 33.9995C36.8626 32.886 35.388 32.2361 33.8361 32.1771C32.2842 32.118 30.7666 32.654 29.5801 33.6802L14.3848 14.2006C14.1456 13.8906 14.0107 13.5095 14.0005 13.1145C13.9902 12.7195 14.1051 12.3316 14.3279 12.009L15.3295 10.5751L26.0516 22.5939L36.751 10.5751L37.7526 12.009C37.9754 12.3316 38.0903 12.7195 38.08 13.1145C38.0697 13.5095 37.9349 13.8906 37.6957 14.2006L28.7606 25.6365L30.3086 27.3735L39.4144 15.6461C39.9635 14.9404 40.2737 14.071 40.2984 13.169C40.323 12.2669 40.0607 11.3811 39.551 10.6451L37.7298 8.03382C37.6309 7.89311 37.5026 7.77676 37.3542 7.69327C37.2058 7.60977 37.0411 7.56123 36.8721 7.55118C36.7031 7.54113 36.534 7.56982 36.3772 7.63517C36.2204 7.70051 36.0797 7.80086 35.9656 7.92891L26.0402 19.1433ZM21.8971 38.5063C21.8993 39.3046 21.6703 40.0855 21.2389 40.7504C20.8075 41.4152 20.1933 41.934 19.4738 42.2411C18.7544 42.5481 17.9622 42.6297 17.1975 42.4754C16.4328 42.3211 15.73 41.9378 15.1781 41.3742C14.6262 40.8106 14.25 40.0919 14.0971 39.3092C13.9442 38.5264 14.0215 37.7148 14.3193 36.9771C14.617 36.2394 15.1218 35.6088 15.7697 35.1651C16.4176 34.7214 17.1794 34.4845 17.9588 34.4845C19.0013 34.4845 20.0013 34.9079 20.7396 35.6618C21.4778 36.4157 21.8941 37.4386 21.8971 38.5063ZM37.5136 38.5063C37.5158 39.3046 37.2868 40.0855 36.8554 40.7504C36.424 41.4152 35.8097 41.934 35.0903 42.2411C34.3709 42.5481 33.5787 42.6297 32.814 42.4754C32.0493 42.3211 31.3465 41.9378 30.7946 41.3742C30.2427 40.8106 29.8664 40.0919 29.7136 39.3092C29.5607 38.5264 29.638 37.7148 29.9357 36.9771C30.2335 36.2394 30.7383 35.6088 31.3861 35.1651C32.034 34.7214 32.7959 34.4845 33.5753 34.4845C34.6178 34.4845 35.6178 34.9079 36.3561 35.6618C37.0943 36.4157 37.5106 37.4386 37.5136 38.5063Z" fill="#1E1E1E"/>
<path d="M34.8001 38.35C34.8001 38.9575 34.3076 39.45 33.7001 39.45C33.0926 39.45 32.6001 38.9575 32.6001 38.35C32.6001 37.7425 33.0926 37.25 33.7001 37.25C34.3076 37.25 34.8001 37.7425 34.8001 38.35Z" fill="white"/>
</svg>
