<svg width="52" height="53" viewBox="0 0 52 53" fill="none" xmlns="http://www.w3.org/2000/svg">
<rect y="0.25" width="52" height="52" rx="4" fill="#F1F1F1"/>
<path d="M38.5 8.25H12.8333C11.8208 8.25 11 9.07081 11 10.0833V43.0833C11 44.0959 11.8208 44.9167 12.8333 44.9167H38.5C39.5125 44.9167 40.3333 44.0959 40.3333 43.0833V10.0833C40.3333 9.07081 39.5125 8.25 38.5 8.25Z" fill="white" stroke="#1E1E1E" stroke-width="2"/>
<path d="M11 15.5833C11 16.0696 11.1932 16.5359 11.537 16.8797C11.8808 17.2235 12.3471 17.4167 12.8333 17.4167H38.5C38.9862 17.4167 39.4525 17.2235 39.7964 16.8797C40.1402 16.5359 40.3333 16.0696 40.3333 15.5833V10.0833C40.3333 9.5971 40.1402 9.13079 39.7964 8.78697C39.4525 8.44315 38.9862 8.25 38.5 8.25H12.8333C12.3471 8.25 11.8808 8.44315 11.537 8.78697C11.1932 9.13079 11 9.5971 11 10.0833V15.5833Z" fill="white" stroke="#1E1E1E" stroke-width="2"/>
<path d="M16.5001 14.6667C17.5126 14.6667 18.3334 13.8459 18.3334 12.8333C18.3334 11.8208 17.5126 11 16.5001 11C15.4876 11 14.6667 11.8208 14.6667 12.8333C14.6667 13.8459 15.4876 14.6667 16.5001 14.6667Z" fill="#1E1E1E"/>
<path d="M21.9998 14.6667C23.0124 14.6667 23.8332 13.8459 23.8332 12.8333C23.8332 11.8208 23.0124 11 21.9998 11C20.9873 11 20.1665 11.8208 20.1665 12.8333C20.1665 13.8459 20.9873 14.6667 21.9998 14.6667Z" fill="#1E1E1E"/>
<path d="M25.6667 37.5833C29.2105 37.5833 32.0833 34.7105 32.0833 31.1667C32.0833 27.6228 29.2105 24.75 25.6667 24.75C22.1228 24.75 19.25 27.6228 19.25 31.1667C19.25 34.7105 22.1228 37.5833 25.6667 37.5833Z" fill="#FF4200" stroke="#1E1E1E" stroke-width="2"/>
</svg>
